YouTube Rip


General
Complete name                            :One Direction - Live While We're Young.mp4
Format                                   : MPEG-4
Format profile                           : Base Media / Version 2
Codec ID                                 : mp42
File size                                : 143 MiB
Duration                                 : 3mn 17s
Overall bit rate                         : 6 046 Kbps
Movie name                               : One Direction - Live While We're Young - YouTube
Encoded date                             : UTC 2012-09-13 13:06:54
Tagged date                              : UTC 2012-09-13 13:06:54
Comment                                  : Captured with Freecorder 6 Video - www.freecorder.com
gsst                                     : 0
gstd                                     : 197903
gssd                                     : B5E9CBC0AHH1348166736641765
gshh                                     :

Video
ID                                       : 1
Format                                   : AVC
Format/Info                              : Advanced Video Codec
Format profile                           : High@L4.0
Format settings, CABAC                   : Yes
Format settings, ReFrames                : 1 frame
Codec ID                                 : avc1
Codec ID/Info                            : Advanced Video Coding
Duration                                 : 3mn 17s
Bit rate                                 : 5 852 Kbps
Maximum bit rate                         : 10.5 Mbps
Width                                    : 1 920 pixels
Height                                   : 1 080 pixels
Display aspect ratio                     : 16:9
Frame rate mode                          : Constant
Frame rate                               : 25.000 fps
Color space                              : YUV
Chroma subsampling                       : 4:2:0
Bit depth                                : 8 bits
Scan type                                : Progressive
Bits/(Pixel*Frame)                       : 0.113
Stream size                              : 138 MiB (97%)
Tagged date                              : UTC 2012-09-13 13:06:55

Audio
ID                                       : 2
Format                                   : AAC
Format/Info                              : Advanced Audio Codec
Format profile                           : LC
Codec ID                                 : 40
Duration                                 : 3mn 17s
Bit rate mode                            : Variable
Bit rate                                 : 192 Kbps
Maximum bit rate                         : 202 Kbps
Channel(s)                               : 2 channels
Channel positions                        : Front: L R
Sampling rate                            : 44.1 KHz
Compression mode                         : Lossy
Stream size                              : 4.53 MiB (3%)
Title                                    : IsoMedia File Produced by Google, 5-11-2011
Encoded date                             : UTC 2012-09-13 13:06:55
Tagged date                              : UTC 2012-09-13 13:06:55